<?xml version="1.0" encoding="UTF-8"?>
<svg width="158px" height="158px" viewBox="0 0 158 158" version="1.1" xmlns="http://www.w3.org/2000/svg" xmlns:xlink="http://www.w3.org/1999/xlink">
    <title>Avatar</title>
    <defs>
        <circle id="path-1" cx="79" cy="79" r="79"></circle>
    </defs>
    <g id="Avatar" stroke="none" stroke-width="1" fill="none" fill-rule="evenodd">
        <g id="Shapes">
            <g id="Mask-2">
                <mask id="mask-2" fill="white">
                    <use xlink:href="#path-1"></use>
                </mask>
                <circle stroke="#0B0C0C" stroke-width="4" cx="79" cy="79" r="77"></circle>
                <circle id="Shoulders" fill="#0B0C0C" mask="url(#mask-2)" cx="79" cy="144" r="60"></circle>
            </g>
            <path d="M79,0 C122.630495,0 158,35.3695048 158,79 C158,122.630495 122.630495,158 79,158 C35.3695048,158 0,122.630495 0,79 C0,35.3695048 35.3695048,0 79,0 Z M79,4 C37.5786438,4 4,37.5786438 4,79 C4,120.421356 37.5786438,154 79,154 C120.421356,154 154,120.421356 154,79 C154,37.5786438 120.421356,4 79,4 Z" id="outer" fill="#0B0C0C" fill-rule="nonzero"></path>
            <circle id="head" fill="#0B0C0C" cx="79" cy="49" r="30"></circle>
        </g>
    </g>
</svg>