<?xml version="1.0" encoding="UTF-8"?>
<svg width="201px" height="158px" viewBox="0 0 201 158" version="1.1" xmlns="http://www.w3.org/2000/svg" xmlns:xlink="http://www.w3.org/1999/xlink">
    <title>Avatar-warning</title>
    <defs>
        <circle id="path-1" cx="79" cy="79" r="79"></circle>
    </defs>
    <g id="Avatar-warning" stroke="none" stroke-width="1" fill="none" fill-rule="evenodd">
        <g id="Shapes">
            <g id="Mask-2">
                <mask id="mask-2" fill="white">
                    <use xlink:href="#path-1"></use>
                </mask>
                <circle stroke="#0B0C0C" stroke-width="4" cx="79" cy="79" r="77"></circle>
                <circle id="Shoulders" fill="#0B0C0C" mask="url(#mask-2)" cx="79" cy="144" r="60"></circle>
            </g>
            <path d="M79,0 C122.630495,0 158,35.3695048 158,79 C158,122.630495 122.630495,158 79,158 C35.3695048,158 0,122.630495 0,79 C0,35.3695048 35.3695048,0 79,0 Z M79,3 C37.026359,3 3,37.026359 3,79 C3,120.973641 37.026359,155 79,155 C120.973641,155 155,120.973641 155,79 C155,37.026359 120.973641,3 79,3 Z" id="Combined-Shape" fill="#0B0C0C"></path>
            <circle id="head" fill="#0B0C0C" cx="79" cy="49" r="30"></circle>
        </g>
        <g id="warning" transform="translate(104.000000, 58.000000)">
            <path d="M55.3665631,10.7331263 L95.6583592,91.3167184 C97.1402947,94.2805894 95.9389486,97.8846277 92.9750776,99.3665631 C92.141945,99.7831294 91.2232666,100 90.2917961,100 L9.70820393,100 C6.39449543,100 3.70820393,97.3137085 3.70820393,94 C3.70820393,93.0685294 3.92507448,92.149851 4.34164079,91.3167184 L44.6334369,10.7331263 C46.1153723,7.76925531 49.7194106,6.56790923 52.6832816,8.04984472 C53.844446,8.63042693 54.7859809,9.57196188 55.3665631,10.7331263 Z" id="Triangle" fill="#BE3A34"></path>
            <path d="M49.8068433,69.3432671 C51.1718175,69.3432671 52.1504783,68.7380427 52.7428256,67.5275938 C53.3351729,66.317145 53.7214864,64.5787344 53.901766,62.312362 L53.901766,62.312362 L55.5629139,43.2671082 C55.7431935,41.5158205 55.8333333,39.790287 55.8333333,38.0905077 C55.8333333,35.2060338 55.459897,32.9976085 54.7130243,31.4652318 C53.9661516,29.932855 52.4852833,29.1666667 50.2704194,29.1666667 C48.441869,29.1666667 46.9674393,29.7654525 45.8471302,30.9630243 C44.7268212,32.160596 44.1666667,33.8281825 44.1666667,35.9657837 C44.1666667,37.5367918 44.2825607,40.125092 44.5143488,43.7306843 L44.5143488,43.7306843 L45.7505519,62.2350993 C45.98234,64.6302428 46.3686534,66.4137233 46.9094923,67.5855408 C47.4503311,68.7573584 48.4161148,69.3432671 49.8068433,69.3432671 Z M50.0386313,87.6545254 C51.5838852,87.6545254 52.9359823,87.1394408 54.0949227,86.1092715 C55.2538631,85.0791023 55.8333333,83.6626196 55.8333333,81.8598234 C55.8333333,80.2630611 55.2603017,78.9045254 54.1142384,77.7842163 C52.9681751,76.6639073 51.5838852,76.1037528 49.9613687,76.1037528 C48.3388521,76.1037528 46.9674393,76.6639073 45.8471302,77.7842163 C44.7268212,78.9045254 44.1666667,80.2630611 44.1666667,81.8598234 C44.1666667,83.6883738 44.7525754,85.1112951 45.9243929,86.1285872 C47.0962104,87.1458793 48.4676233,87.6545254 50.0386313,87.6545254 Z" id="!" fill="#FFFFFF" fill-rule="nonzero"></path>
        </g>
    </g>
</svg>